<?xml version="1.0" standalone="no"?>
<!DOCTYPE svg PUBLIC "-//W3C//DTD SVG 20010904//EN"
 "http://www.w3.org/TR/2001/REC-SVG-20010904/DTD/svg10.dtd">
<svg version="1.0" xmlns="http://www.w3.org/2000/svg"
 width="816.000000pt" height="816.000000pt" viewBox="0 0 816.000000 816.000000"
 preserveAspectRatio="xMidYMid meet">
<metadata>
Created by potrace 1.11, written by Peter Selinger 2001-2013
</metadata>
<g transform="translate(0.000000,816.000000) scale(0.100000,-0.100000)"
fill="#000000" stroke="none">
<path d="M2742 8064 c-178 -37 -347 -169 -429 -334 -24 -47 -45 -100 -48 -119
-3 -19 -9 -39 -12 -44 -3 -6 -7 -42 -8 -81 l-3 -71 -93 -46 c-52 -26 -98 -51
-104 -56 -5 -5 -13 -10 -18 -11 -8 -2 -61 -29 -89 -47 -9 -5 -35 -20 -57 -32
-22 -12 -86 -53 -142 -90 -55 -37 -108 -72 -117 -78 -20 -12 -133 -96 -148
-110 -6 -5 -28 -23 -49 -40 -183 -144 -461 -425 -602 -611 -12 -16 -42 -55
-68 -86 -25 -31 -45 -60 -45 -63 0 -4 -10 -20 -23 -35 -24 -30 -27 -34 -87
-128 -22 -34 -40 -67 -40 -72 0 -6 -4 -10 -9 -10 -5 0 -11 -8 -14 -17 -4 -10
-22 -45 -42 -78 -82 -138 -215 -429 -270 -590 -9 -27 -21 -59 -25 -70 -11 -25
-31 -91 -35 -113 -2 -9 -4 -17 -5 -17 -1 0 -3 -7 -5 -15 -2 -8 -16 -60 -31
-115 -14 -55 -28 -108 -30 -118 -2 -9 -6 -27 -9 -40 -3 -12 -8 -38 -11 -57 -8
-46 -12 -65 -14 -65 -1 0 -3 -13 -5 -30 -2 -16 -6 -43 -9 -60 -5 -27 -10 -63
-22 -160 -26 -216 -25 -685 2 -870 2 -16 6 -48 9 -70 7 -64 14 -108 20 -135 3
-14 8 -40 11 -59 5 -32 7 -42 19 -93 3 -13 8 -36 11 -53 2 -16 10 -48 17 -70
6 -22 12 -44 13 -50 1 -5 3 -13 4 -17 3 -10 5 -16 14 -53 28 -106 108 -336
147 -422 10 -24 19 -46 19 -49 0 -4 31 -72 70 -150 38 -79 70 -148 70 -154 0
-5 4 -10 9 -10 5 0 16 -17 26 -37 9 -21 26 -54 38 -74 12 -20 37 -63 56 -95
19 -33 37 -61 41 -64 3 -3 30 -42 59 -87 30 -46 58 -83 63 -83 4 0 8 -6 8 -12
0 -7 13 -27 28 -45 15 -17 36 -44 47 -59 23 -33 64 -83 83 -103 7 -7 12 -16
10 -20 -2 -4 -22 -45 -46 -92 -23 -47 -49 -117 -56 -155 -14 -68 -15 -210 -1
-269 4 -16 8 -34 9 -40 1 -5 5 -16 9 -22 5 -7 6 -13 3 -13 -3 0 13 -36 36 -81
82 -162 249 -292 433 -336 44 -10 217 -11 252 -1 21 6 45 12 53 13 41 5 187
78 226 113 81 72 65 68 131 30 134 -78 397 -199 553 -253 41 -14 84 -30 95
-34 63 -26 330 -98 423 -116 13 -2 31 -6 40 -9 16 -5 66 -13 122 -21 14 -2 41
-7 60 -10 80 -13 97 -16 140 -20 25 -2 81 -7 125 -12 155 -15 632 -7 759 13
22 3 57 7 76 9 19 1 49 5 65 8 17 4 41 8 55 11 81 13 185 34 185 36 0 2 36 8
70 13 11 1 25 6 31 9 6 4 21 9 35 11 38 7 109 27 174 49 33 10 67 21 75 23 58
14 291 108 435 175 50 23 91 40 91 38 1 -1 10 4 20 12 11 9 44 29 74 45 91 47
342 202 385 237 6 5 39 30 75 56 36 25 67 49 70 52 3 4 28 24 55 46 86 67 200
171 309 280 110 110 213 224 251 278 11 16 27 36 37 45 38 38 245 336 246 355
0 5 4 12 10 15 14 9 118 194 180 319 l55 114 36 -7 c58 -12 192 -14 241 -5 90
17 106 22 178 56 75 36 83 42 156 106 39 34 130 149 132 166 0 4 10 29 22 56
12 26 28 69 34 95 13 49 17 239 6 281 -11 40 -25 83 -39 115 -7 17 -13 32 -13
35 -4 23 -80 126 -127 172 -47 47 -148 121 -169 124 -3 0 -21 7 -41 16 -20 9
-50 19 -67 23 -26 5 -30 10 -26 30 2 14 7 75 10 137 5 126 5 122 5 163 -1 17
-1 37 -1 45 0 102 -13 307 -25 405 -7 49 -14 108 -21 155 -2 19 -7 49 -11 65
-3 17 -7 39 -9 50 -6 48 -17 98 -50 225 -19 74 -37 145 -39 156 -10 46 -86
260 -121 341 -8 17 -14 34 -14 37 0 14 -157 340 -198 411 -60 104 -77 131 -87
137 -5 4 -6 8 -2 8 4 0 3 6 -3 13 -6 6 -29 41 -52 77 -196 308 -574 718 -832
905 -23 16 -43 32 -46 35 -3 3 -23 19 -45 35 -22 17 -42 32 -45 35 -3 3 -12
10 -21 15 -36 22 -175 115 -186 125 -7 5 -14 10 -17 10 -3 0 -45 24 -93 53
-48 29 -151 83 -228 121 -175 85 -181 87 -290 130 -148 56 -205 76 -205 70 0
-4 -6 -2 -12 3 -13 10 -59 25 -193 62 -117 32 -220 55 -290 66 -11 1 -33 5
-50 8 -30 6 -148 23 -215 32 -137 19 -568 26 -751 13 l-85 -6 -20 36 c-10 20
-53 70 -94 112 -154 155 -373 219 -588 174z m238 -320 c73 -22 150 -91 190
-170 34 -69 35 -197 1 -266 -21 -43 -68 -99 -116 -137 -47 -37 -183 -57 -262
-38 -74 18 -168 95 -197 160 -25 56 -28 71 -32 134 -3 64 20 154 48 189 88
107 164 145 278 139 36 -2 76 -7 90 -11z m1185 -318 c33 -3 76 -8 95 -11 19
-3 53 -7 75 -10 64 -8 205 -34 275 -51 36 -9 76 -18 90 -21 119 -20 449 -137
593 -209 26 -13 47 -21 47 -18 0 3 15 -3 33 -14 59 -37 130 -72 143 -72 8 0
14 -4 14 -8 0 -5 18 -17 40 -27 22 -10 40 -22 40 -27 0 -5 5 -6 10 -3 6 3 10
1 10 -4 0 -6 5 -11 11 -11 16 0 195 -118 308 -203 176 -132 392 -330 509 -466
26 -30 58 -66 72 -81 63 -65 300 -397 300 -420 0 -5 5 -10 10 -10 6 0 10 -5
10 -11 0 -6 8 -23 18 -37 33 -48 130 -231 175 -332 13 -30 34 -76 46 -102 11
-26 21 -54 21 -61 0 -7 4 -17 8 -23 11 -12 43 -92 48 -122 3 -12 13 -45 24
-72 11 -28 17 -50 14 -50 -3 0 -2 -6 3 -12 4 -7 8 -17 10 -23 1 -5 9 -35 18
-65 9 -30 18 -66 21 -80 3 -14 11 -52 19 -85 18 -77 35 -162 40 -206 2 -19 9
-65 14 -104 15 -106 22 -191 26 -287 1 -47 6 -91 10 -97 3 -6 3 -11 -2 -11 -4
0 -8 -13 -8 -30 0 -16 4 -30 8 -30 5 0 5 -5 1 -11 -4 -7 -9 -68 -11 -138 -2
-69 -5 -137 -7 -151 -2 -14 -4 -30 -5 -36 -1 -10 -19 -19 -58 -29 -45 -11
-158 -89 -219 -151 -83 -84 -146 -200 -168 -310 -14 -66 -15 -211 -2 -264 3
-14 8 -36 11 -49 8 -44 86 -189 123 -229 43 -47 47 -30 -41 -207 -79 -159
-233 -411 -314 -515 -275 -353 -509 -580 -818 -795 -108 -75 -347 -221 -379
-231 -12 -4 -23 -9 -26 -13 -5 -6 -72 -39 -174 -86 -56 -26 -231 -95 -251
-100 -5 -1 -22 -7 -36 -13 -39 -16 -292 -89 -321 -92 -4 -1 -22 -6 -40 -11
-18 -5 -48 -12 -67 -15 -18 -3 -43 -8 -55 -10 -11 -2 -36 -7 -55 -10 -18 -3
-43 -8 -55 -10 -11 -2 -41 -7 -66 -10 -25 -3 -55 -7 -68 -9 -120 -20 -595 -27
-737 -11 -88 9 -202 24 -235 30 -14 3 -41 7 -60 10 -19 2 -46 7 -60 10 -156
34 -217 49 -230 53 -8 3 -24 8 -35 10 -18 3 -190 57 -225 70 -8 3 -22 7 -30 9
-8 2 -23 7 -35 12 -11 6 -45 20 -75 32 -116 46 -140 57 -305 140 -156 78 -170
87 -167 110 9 96 8 224 -4 278 -44 209 -213 397 -419 467 -78 26 -102 30 -220
29 -85 -1 -124 -6 -172 -23 -34 -11 -68 -21 -75 -21 -15 0 -78 73 -78 89 0 6
-4 11 -9 11 -9 0 -129 158 -150 198 -6 11 -17 27 -23 34 -7 8 -18 23 -25 33
-223 362 -347 642 -456 1035 -22 79 -61 254 -59 263 1 4 -2 26 -7 50 -6 23
-12 62 -15 87 -4 25 -8 63 -11 85 -26 205 -26 668 -1 825 3 14 7 45 11 70 12
86 15 105 20 130 3 14 8 41 11 60 2 19 7 43 10 52 3 9 6 25 8 35 8 38 57 229
63 243 3 8 8 23 9 32 7 33 96 273 106 286 6 6 7 12 4 12 -4 0 -1 12 8 28 15
29 59 124 61 132 3 14 100 198 140 265 25 42 45 80 45 85 0 5 3 10 8 12 4 2
38 50 77 108 147 222 372 481 566 651 34 30 73 63 85 74 12 12 37 32 55 45 18
14 47 37 65 53 17 15 37 27 43 27 6 0 11 4 11 8 0 9 240 170 330 221 30 17
100 54 154 82 l100 51 20 -28 c42 -62 158 -163 226 -198 38 -20 70 -34 70 -30
0 3 6 1 14 -5 25 -21 158 -40 251 -36 162 6 297 67 415 185 53 54 86 98 112
150 36 73 50 104 54 125 1 6 3 12 4 15 5 14 11 49 14 88 2 24 8 48 12 52 5 5
34 10 64 12 74 4 500 0 575 -6z m3455 -4162 c31 -9 97 -50 126 -78 29 -28 69
-94 79 -131 23 -86 5 -218 -38 -272 -14 -18 -69 -72 -91 -91 -48 -40 -190 -61
-263 -39 -103 30 -190 116 -220 218 -10 36 -10 132 1 182 13 56 69 131 131
174 68 47 189 63 275 37z m-6043 -1935 c78 -39 138 -108 168 -194 15 -44 14
-141 -2 -190 -18 -57 -61 -123 -93 -145 -12 -8 -28 -21 -36 -28 -41 -39 -201
-62 -267 -38 -107 39 -184 117 -213 216 -11 36 -11 135 -1 177 23 94 133 205
215 219 8 1 16 5 19 7 3 3 40 4 83 2 58 -2 91 -9 127 -26z"/>
<path d="M3756 6323 c-3 -3 -30 -7 -59 -8 -54 -2 -154 -12 -197 -20 -14 -2
-43 -7 -65 -10 -38 -5 -76 -12 -100 -19 -5 -2 -28 -7 -50 -11 -22 -5 -42 -10
-45 -10 -3 -1 -25 -7 -50 -14 -25 -7 -49 -14 -55 -16 -5 -1 -23 -7 -38 -13
-16 -7 -34 -12 -40 -12 -7 -1 -30 -9 -52 -20 -22 -11 -44 -19 -48 -20 -25 -1
-302 -139 -365 -181 -24 -16 -47 -29 -53 -29 -5 0 -9 -4 -9 -10 0 -5 -5 -10
-11 -10 -9 0 -124 -82 -180 -127 -111 -92 -267 -245 -329 -321 -19 -24 -45
-56 -58 -70 -56 -65 -205 -301 -261 -417 -82 -166 -147 -345 -182 -495 -6 -25
-13 -53 -15 -62 -10 -45 -14 -66 -20 -108 -3 -25 -8 -53 -10 -64 -6 -31 -15
-117 -18 -181 -2 -33 -5 -64 -6 -70 -1 -5 -1 -14 0 -20 3 -14 3 -78 0 -90 -1
-5 -2 -12 -1 -15 1 -3 4 -41 6 -85 5 -131 25 -278 55 -406 6 -26 13 -53 14
-60 9 -50 59 -204 91 -284 97 -242 230 -466 399 -670 51 -62 216 -228 276
-278 25 -20 59 -48 75 -63 54 -46 278 -191 365 -236 123 -64 385 -173 428
-178 4 0 25 -6 47 -12 22 -6 46 -13 54 -14 7 -1 34 -8 60 -14 56 -13 85 -19
131 -26 19 -3 46 -7 60 -10 51 -9 128 -16 220 -19 52 -2 96 -4 98 -5 3 -3 41
-3 45 0 1 1 45 3 97 5 124 4 260 21 370 46 25 6 56 13 70 16 35 7 39 8 90 22
67 19 161 51 197 67 17 8 34 14 38 14 6 0 48 18 165 72 55 26 135 70 235 131
52 31 215 151 215 158 0 4 8 10 19 14 24 7 281 257 281 273 0 7 4 12 9 12 30
0 252 326 329 483 69 141 138 305 146 350 1 6 12 44 23 82 12 39 24 84 28 100
4 17 9 38 11 47 10 45 14 65 19 103 4 22 8 51 10 65 14 89 17 127 20 225 2 61
5 112 6 115 1 3 1 9 0 14 -1 4 -4 54 -6 110 -5 103 -10 163 -20 226 -10 65
-46 235 -61 285 -8 28 -14 55 -15 60 -1 6 -5 18 -11 28 -5 10 -12 30 -14 45
-3 14 -8 30 -12 36 -3 6 -7 16 -8 21 -5 25 -87 208 -129 289 -63 121 -181 304
-215 336 -3 3 -17 21 -30 40 -42 61 -216 244 -310 325 -97 85 -308 235 -330
235 -5 0 -10 4 -10 8 0 8 -278 152 -292 152 -3 0 -23 8 -44 17 -22 9 -41 17
-44 18 -3 1 -12 4 -20 8 -42 16 -131 47 -138 47 -4 0 -25 6 -47 12 -22 6 -49
13 -60 15 -11 2 -38 8 -60 14 -22 6 -51 13 -65 15 -14 2 -36 6 -49 8 -14 3
-45 8 -70 11 -25 3 -62 8 -81 11 -19 3 -81 6 -136 8 -56 2 -107 6 -113 10 -6
4 -11 4 -11 -1 0 -9 -52 -9 -67 0 -6 4 -13 4 -17 0z"/>
</g>
</svg>
